<?xml version="1.0" encoding="UTF-8" standalone="no"?>
<!-- Created with Inkscape (http://www.inkscape.org/) -->

<svg
   xmlns:dc="http://purl.org/dc/elements/1.1/"
   xmlns:cc="http://creativecommons.org/ns#"
   xmlns:rdf="http://www.w3.org/1999/02/22-rdf-syntax-ns#"
   xmlns:svg="http://www.w3.org/2000/svg"
   xmlns="http://www.w3.org/2000/svg"
   xmlns:sodipodi="http://sodipodi.sourceforge.net/DTD/sodipodi-0.dtd"
   xmlns:inkscape="http://www.inkscape.org/namespaces/inkscape"
   width="297mm"
   height="210mm"
   viewBox="0 0 297 210"
   version="1.1"
   id="svg3142"
   inkscape:version="0.92.5 (2060ec1f9f, 2020-04-08)"
   sodipodi:docname="mission-image.svg">
  <defs
     id="defs3136">
    <clipPath
       clipPathUnits="userSpaceOnUse"
       id="clipPath976">
      <path
         d="m 326.491,294.164 h 177.337 v -43.81 H 326.491 Z"
         id="path974"
         inkscape:connector-curvature="0" />
    </clipPath>
    <clipPath
       clipPathUnits="userSpaceOnUse"
       id="clipPath948">
      <path
         d="m 424.021,483.547 h 41.574 v -16.768 h -41.574 z"
         id="path946"
         inkscape:connector-curvature="0" />
    </clipPath>
    <clipPath
       clipPathUnits="userSpaceOnUse"
       id="clipPath816">
      <path
         d="m 278.272,312.049 h 59.451 v -7.737 h -59.451 z"
         id="path814"
         inkscape:connector-curvature="0" />
    </clipPath>
    <clipPath
       clipPathUnits="userSpaceOnUse"
       id="clipPath800">
      <path
         d="m 144.65,352.537 h 27.331 V 314.995 H 144.65 Z"
         id="path798"
         inkscape:connector-curvature="0" />
    </clipPath>
    <clipPath
       clipPathUnits="userSpaceOnUse"
       id="clipPath784">
      <path
         d="m 107.598,349.854 h 46.273 v -25.65 h -46.273 z"
         id="path782"
         inkscape:connector-curvature="0" />
    </clipPath>
    <clipPath
       clipPathUnits="userSpaceOnUse"
       id="clipPath768">
      <path
         d="M 84.4639,329.944 H 178.704 V 304.312 H 84.4639 Z"
         id="path766"
         inkscape:connector-curvature="0" />
    </clipPath>
    <clipPath
       clipPathUnits="userSpaceOnUse"
       id="clipPath744">
      <path
         d="m 171.325,331.925 h 23.549 v -11.512 h -23.549 z"
         id="path742"
         inkscape:connector-curvature="0" />
    </clipPath>
    <clipPath
       clipPathUnits="userSpaceOnUse"
       id="clipPath728">
      <path
         d="m 155.445,320.87 h 43.477 v -8.821 h -43.477 z"
         id="path726"
         inkscape:connector-curvature="0" />
    </clipPath>
    <clipPath
       clipPathUnits="userSpaceOnUse"
       id="clipPath704">
      <path
         d="m 133.694,338.73 h 2.256 v -1.739 h -2.256 z"
         id="path702"
         inkscape:connector-curvature="0" />
    </clipPath>
    <clipPath
       clipPathUnits="userSpaceOnUse"
       id="clipPath688">
      <path
         d="m 132.762,323.021 h 3.32 v -11.293 h -3.32 z"
         id="path686"
         inkscape:connector-curvature="0" />
    </clipPath>
    <clipPath
       clipPathUnits="userSpaceOnUse"
       id="clipPath672">
      <path
         d="m 144.437,354.187 h 15.005 v -42.072 h -15.005 z"
         id="path670"
         inkscape:connector-curvature="0" />
    </clipPath>
    <clipPath
       clipPathUnits="userSpaceOnUse"
       id="clipPath648">
      <path
         d="m 265.114,362.895 h 64.837 v -12.319 h -64.837 z"
         id="path646"
         inkscape:connector-curvature="0" />
    </clipPath>
    <clipPath
       clipPathUnits="userSpaceOnUse"
       id="clipPath632">
      <path
         d="m 217.718,358.533 h 31.265 v -7.618 h -31.265 z"
         id="path630"
         inkscape:connector-curvature="0" />
    </clipPath>
    <clipPath
       clipPathUnits="userSpaceOnUse"
       id="clipPath616">
      <path
         d="m 179.849,386.55 h 75.512 v -6.361 h -75.512 z"
         id="path614"
         inkscape:connector-curvature="0" />
    </clipPath>
    <clipPath
       clipPathUnits="userSpaceOnUse"
       id="clipPath588">
      <path
         d="m 297.4,369.647 h 7.846 V 352.066 H 297.4 Z"
         id="path586"
         inkscape:connector-curvature="0" />
    </clipPath>
    <clipPath
       clipPathUnits="userSpaceOnUse"
       id="clipPath572">
      <path
         d="m 281.535,372.767 h 8.01 v -10.911 h -8.01 z"
         id="path570"
         inkscape:connector-curvature="0" />
    </clipPath>
    <clipPath
       clipPathUnits="userSpaceOnUse"
       id="clipPath552">
      <path
         d="m 217.657,432.746 h 41.684 V 401.24 h -41.684 z"
         id="path550"
         inkscape:connector-curvature="0" />
    </clipPath>
    <clipPath
       clipPathUnits="userSpaceOnUse"
       id="clipPath536">
      <path
         d="M 220.451,476.699 H 246.93 V 447.67 h -26.479 z"
         id="path534"
         inkscape:connector-curvature="0" />
    </clipPath>
    <clipPath
       clipPathUnits="userSpaceOnUse"
       id="clipPath520">
      <path
         d="m 134.913,373.943 h 83.759 v -53.209 h -83.759 z"
         id="path518"
         inkscape:connector-curvature="0" />
    </clipPath>
    <clipPath
       clipPathUnits="userSpaceOnUse"
       id="clipPath496">
      <path
         d="m 227.959,387.123 h 82.1 v -12.246 h -82.1 z"
         id="path494"
         inkscape:connector-curvature="0" />
    </clipPath>
    <clipPath
       clipPathUnits="userSpaceOnUse"
       id="clipPath480">
      <path
         d="m 233.568,376.414 h 43.696 v -53.502 h -43.696 z"
         id="path478"
         inkscape:connector-curvature="0" />
    </clipPath>
    <clipPath
       clipPathUnits="userSpaceOnUse"
       id="clipPath452">
      <path
         d="M 81.8296,344.188 H 360.832 V 299.714 H 81.8296 Z"
         id="path450"
         inkscape:connector-curvature="0" />
    </clipPath>
  </defs>
  <sodipodi:namedview
     id="base"
     pagecolor="#ffffff"
     bordercolor="#666666"
     borderopacity="1.0"
     inkscape:pageopacity="0.0"
     inkscape:pageshadow="2"
     inkscape:zoom="0.35"
     inkscape:cx="564.28571"
     inkscape:cy="560"
     inkscape:document-units="mm"
     inkscape:current-layer="layer1"
     showgrid="false"
     inkscape:window-width="1366"
     inkscape:window-height="704"
     inkscape:window-x="0"
     inkscape:window-y="27"
     inkscape:window-maximized="1" />
  <metadata
     id="metadata3139">
    <rdf:RDF>
      <cc:Work
         rdf:about="">
        <dc:format>image/svg+xml</dc:format>
        <dc:type
           rdf:resource="http://purl.org/dc/dcmitype/StillImage" />
        <dc:title></dc:title>
      </cc:Work>
    </rdf:RDF>
  </metadata>
  <g
     inkscape:label="Layer 1"
     inkscape:groupmode="layer"
     id="layer1"
     transform="translate(0,-87)">
    <g
       transform="matrix(0.35277777,0,0,-0.35277777,44.785599,188.74181)"
       id="g342">
      <path
         inkscape:connector-curvature="0"
         id="path344"
         style="fill:#868777;fill-opacity:1;fill-rule:nonzero;stroke:none"
         d="m 0,0 c 0,0 12.148,-16.613 12.148,-30.95 0,-14.341 10.637,-38.297 19.146,-52.453 8.511,-14.158 40.956,-18.876 49.465,-26.498 8.511,-7.624 24.999,-47.552 26.593,-47.552 1.596,0 19.681,-12.34 25.53,-13.429 5.852,-1.089 11.702,38.477 15.426,37.749 3.722,-0.726 11.7,-14.156 12.765,-16.696 1.063,-2.541 43.08,-18.195 51.59,-21.077 8.511,-2.883 16.489,6.149 20.212,0 3.723,-6.147 19.148,-38.816 21.275,-42.446 2.128,-3.629 43.614,-20.328 43.614,-20.328 0,0 20.743,46.101 22.339,47.19 1.595,1.088 35.635,1.45 39.89,14.156 4.254,12.703 14.894,10.163 17.553,5.078 2.657,-5.078 12.233,-10.162 19.146,-11.613 6.914,-1.452 20.743,-2.541 20.743,-2.541 l 27.128,35.935 c 0,0 -6.383,46.827 0,45.373 6.381,-1.451 25.53,-32.667 25.53,-32.667 0,0 51.589,-0.001 54.516,0.726 2.926,0.726 14.82,49.729 16.318,57.353 1.498,7.621 -7.543,11.976 -7.543,15.607 0,3.63 17.019,2.54 17.019,2.54 0,0 39.891,39.93 35.636,54.812 C 581.785,13.151 0,0 0,0" />
    </g>
    <g
       transform="matrix(0.35277777,0,0,-0.35277777,45.035014,188.94887)"
       id="g346">
      <path
         inkscape:connector-curvature="0"
         id="path348"
         style="fill:#727269;fill-opacity:1;fill-rule:nonzero;stroke:none"
         d="m 0,0 19.689,-6.166 15.79,-18.154 10.804,-40.346 c 0,0 -5.111,-24.245 1.965,-30.969 0,0 -19.033,7.263 -22.348,17.597 -3.315,10.332 -10.997,23.594 -10.997,23.594 l -4.448,31.687 z" />
    </g>
    <g
       transform="matrix(0.35277777,0,0,-0.35277777,80.486958,223.03052)"
       id="g350">
      <path
         inkscape:connector-curvature="0"
         id="path352"
         style="fill:#727269;fill-opacity:1;fill-rule:nonzero;stroke:none"
         d="m 0,0 5.094,-16.597 35.102,-13.168 25.795,-12.282 30.85,-2.6 19.149,-20.268 52.606,10.103 37.546,6.171 21.541,33.758 -11.967,31.82 z" />
    </g>
    <g
       transform="matrix(0.35277777,0,0,-0.35277777,175.34834,238.78114)"
       id="g354">
      <path
         inkscape:connector-curvature="0"
         id="path356"
         style="fill:#727269;fill-opacity:1;fill-rule:nonzero;stroke:none"
         d="m 0,0 -18.079,17.846 -13.563,5.988 -9.573,31.035 c 0,0 40.984,5.723 54.397,-7.482 L 4.687,27.686 Z" />
    </g>
    <g
       transform="matrix(0.35277777,0,0,-0.35277777,215.23702,209.84061)"
       id="g358">
      <path
         inkscape:connector-curvature="0"
         id="path360"
         style="fill:#727269;fill-opacity:1;fill-rule:nonzero;stroke:none"
         d="m 0,0 h -29.828 l 7.181,-30.132 26.057,-10.771 c 0,0 4.079,32.05 -3.41,38.957" />
    </g>
    <g
       transform="matrix(0.35277777,0,0,-0.35277777,239.51219,196.51532)"
       id="g362">
      <path
         inkscape:connector-curvature="0"
         id="path364"
         style="fill:#727269;fill-opacity:1;fill-rule:nonzero;stroke:none"
         d="m 0,0 -11.054,-33.054 -16.318,-4.718 -2.395,28.857 c 0,0 18.582,14.019 29.767,8.915" />
    </g>
    <g
       transform="matrix(0.35277777,0,0,-0.35277777,179.50776,222.16925)"
       id="g366">
      <path
         inkscape:connector-curvature="0"
         id="path368"
         style="fill:#98998a;fill-opacity:1;fill-rule:nonzero;stroke:none"
         d="m 0,0 -11.791,-32.206 v -14.883 l 19.678,-3.993 19.681,10.891 11.171,14.648 12.764,19.587 21.806,10.771 h 14.895 l 7.976,1.736 -2.127,13.513 z" />
    </g>
    <g
       transform="matrix(0.35277777,0,0,-0.35277777,215.23702,210.52723)"
       id="g370">
      <path
         inkscape:connector-curvature="0"
         id="path372"
         style="fill:#98998a;fill-opacity:1;fill-rule:nonzero;stroke:none"
         d="m 0,0 3.41,-20.561 v -18.396 l 24.998,6.254 15.957,22.307 13.393,33.51 z" />
    </g>
    <g
       transform="matrix(0.35277777,0,0,-0.35277777,78.904607,211.7616)"
       id="g374">
      <path
         inkscape:connector-curvature="0"
         id="path376"
         style="fill:#98998a;fill-opacity:1;fill-rule:nonzero;stroke:none"
         d="m 0,0 c 0,0 4.787,-39.749 6.382,-38.932 1.596,0.818 12.234,-4.264 16.489,-4.627 4.256,-0.362 18.717,-8.147 41.757,-22.445 5.849,-3.631 12.494,-1.512 12.494,-1.512 l 42.017,-5.808 7.448,-13.431 35.635,4.357 45.209,4.719 25.53,28.774 28.721,7.885 1.862,16.878 z" />
    </g>
    <g
       transform="matrix(0.35277777,0,0,-0.35277777,58.264887,178.08339)"
       id="g378">
      <path
         inkscape:connector-curvature="0"
         id="path380"
         style="fill:#c6c6b6;fill-opacity:1;fill-rule:nonzero;stroke:none"
         d="m 0,0 6.381,-10.164 c 0,0 -58.506,-13.068 -41.487,-21.055 17.021,-7.983 21.275,-22.896 29.786,-22.338 8.511,0.56 0.001,-17.589 11.701,-23.398 11.702,-5.806 37.232,-5.082 44.678,-12.341 7.446,-7.262 6.117,-7.44 31.647,-10.164 25.531,-2.721 7.979,-15.79 27.127,-15.79 19.146,0 51.858,6.534 43.081,-9.256 l 26.329,3.268 c 0,0 0.796,-13.069 35.103,-13.069 34.306,0 98.927,-2.178 107.704,14.7 0,0 15.158,-8.166 36.7,-3.265 21.542,4.899 79.781,9.256 78.984,17.969 -0.799,8.712 -24.734,11.432 -24.734,11.432 0,0 60.633,3.267 74.199,11.978 13.562,8.712 16.752,14.294 16.752,14.294 l -17.551,6.94 c 0,0 64.619,16.881 61.43,28.315 -3.192,11.435 -5.584,17.967 -43.081,28.312 -37.496,10.348 -3.988,31.581 -19.146,35.393 -15.16,3.811 -82.177,8.168 -98.931,20.69 C 369.918,64.974 293.329,71.508 262.213,66.063 231.099,60.618 176.051,64.974 160.892,61.706 145.733,58.44 92.28,59.529 96.27,42.106 100.258,24.682 -28.457,12.884 0,0" />
    </g>
    <g
       transform="matrix(0.35277777,0,0,-0.35277777,229.85596,199.34134)"
       id="g382">
      <path
         inkscape:connector-curvature="0"
         id="path384"
         style="fill:#dbdbcc;fill-opacity:1;fill-rule:nonzero;stroke:none"
         d="m 0,0 c 0,0 11.169,10.347 25.93,14.159 14.758,3.812 36.322,19.154 26.936,28.634 0,0 14.779,-10.939 8.678,-17.744 C 55.447,18.243 9.572,-0.27 0,0" />
    </g>
    <g
       transform="matrix(0.35277777,0,0,-0.35277777,96.420518,223.03052)"
       id="g386">
      <path
         inkscape:connector-curvature="0"
         id="path388"
         style="fill:#63635d;fill-opacity:1;fill-rule:nonzero;stroke:none"
         d="m 0,0 c 0,0 3.537,-15.774 7.79,-16.962 4.256,-1.188 16.489,-12.803 16.489,-12.803 l 4.255,10.527 13.117,16.912 z" />
    </g>
    <g
       transform="matrix(0.35277777,0,0,-0.35277777,49.139866,200.90609)"
       id="g390">
      <path
         inkscape:connector-curvature="0"
         id="path392"
         style="fill:#63635d;fill-opacity:1;fill-rule:nonzero;stroke:none"
         d="m 0,0 10.806,-26.055 17.719,-6.533 v 7.986 l -6.914,17.787 z" />
    </g>
    <g
       transform="matrix(0.35277777,0,0,-0.35277777,173.30918,247.06728)"
       id="g394">
      <path
         inkscape:connector-curvature="0"
         id="path396"
         style="fill:#727269;fill-opacity:1;fill-rule:nonzero;stroke:none"
         d="M 0,0 C 0,0 22.54,13.02 30.516,10.479 38.495,7.939 35.836,0 35.836,0 l 17.28,-16.078 c 0,0 -17.377,0.872 -30.626,6.273 C 9.242,-4.401 0,0 0,0" />
    </g>
    <g
       transform="matrix(0.35277777,0,0,-0.35277777,201.61754,224.05543)"
       id="g398">
      <path
         inkscape:connector-curvature="0"
         id="path400"
         style="fill:#727269;fill-opacity:1;fill-rule:nonzero;stroke:none"
         d="m 0,0 c 0,0 14.098,-0.301 18.885,-2.117 4.788,-1.817 12.232,-7.74 12.232,-8.045 0,-0.306 5.404,-9.563 7.489,-10.922 2.086,-1.361 18.557,-11.45 18.557,-11.45 L 25.53,-32.667 C 25.53,-32.667 11.428,-7.681 0,0" />
    </g>
    <g
       transform="matrix(0.35277777,0,0,-0.35277777,91.663522,249.02512)"
       id="g402">
      <path
         inkscape:connector-curvature="0"
         id="path404"
         style="fill:#727269;fill-opacity:1;fill-rule:nonzero;stroke:none"
         d="m 0,0 -25.53,13.429 12.766,7.864 5.323,13.069 22.866,3.387 C 15.425,37.749 9.039,-1.149 0,0" />
    </g>
    <g
       transform="matrix(0.35277777,0,0,-0.35277777,125.39102,248.27068)"
       id="g406">
      <path
         inkscape:connector-curvature="0"
         id="path408"
         style="fill:#727269;fill-opacity:1;fill-rule:nonzero;stroke:none"
         d="m 0,0 19.55,3.728 4.256,-5.892 7.978,-14.798 2.126,-7.986 -7.444,-11.254 42.81,-28.735 c 0,0 -37.502,14.46 -43.614,20.329 -6.112,5.866 -11.431,25.83 -12.494,26.919 C 12.105,-16.599 0,0 0,0" />
    </g>
    <g
       transform="matrix(0.35277777,0,0,-0.35277777,65.188819,223.94346)"
       id="g410">
      <path
         inkscape:connector-curvature="0"
         id="path412"
         style="fill:#727269;fill-opacity:1;fill-rule:nonzero;stroke:none"
         d="m 0,0 21.067,7.729 11.17,-8.656 11.128,-13.447 -6.242,-18.975 -11.801,20.54 -16.489,8.346 z" />
    </g>
    <g
       transform="matrix(0.35277777,0,0,-0.35277777,157.71082,254.53141)"
       id="g414">
      <path
         inkscape:connector-curvature="0"
         id="path416"
         style="fill:#727269;fill-opacity:1;fill-rule:nonzero;stroke:none"
         d="m 0,0 8.781,18.524 c 0,0 13.828,-0.849 18.615,-2.941 C 32.183,13.489 35.98,9.075 35.98,9.075 35.98,9.075 24.727,0.666 0,0" />
    </g>
    <g
       transform="matrix(0.35277777,0,0,-0.35277777,121.49769,220.85355)"
       id="g418">
      <path
         inkscape:connector-curvature="0"
         id="path420"
         style="fill:#afafa3;fill-opacity:1;fill-rule:nonzero;stroke:none"
         d="m 0,0 27.53,-12.252 -21.679,-48.73 -7.449,13.43 z" />
    </g>
    <g
       transform="matrix(0.35277777,0,0,-0.35277777,56.763676,203.31046)"
       id="g422">
      <path
         inkscape:connector-curvature="0"
         id="path424"
         style="fill:#afafa3;fill-opacity:1;fill-rule:nonzero;stroke:none"
         d="m 0,0 h -10.805 l 17.72,-25.772 v 7.986 z" />
    </g>
    <g
       transform="matrix(0.35277777,0,0,-0.35277777,50.196646,196.97697)"
       id="g426">
      <path
         inkscape:connector-curvature="0"
         id="path428"
         style="fill:#c6c6b6;fill-opacity:1;fill-rule:nonzero;stroke:none"
         d="m 0,0 c 0,0 9.573,-0.166 12.766,-2.707 3.19,-2.54 5.849,-15.246 5.849,-15.246 0,0 -2.657,-6.897 -9.306,-3.268 -6.649,3.631 -12.305,10.083 -12.305,10.083 z" />
    </g>
    <g
       transform="matrix(0.35277777,0,0,-0.35277777,96.424469,222.68669)"
       id="g430">
      <path
         inkscape:connector-curvature="0"
         id="path432"
         style="fill:#afafa3;fill-opacity:1;fill-rule:nonzero;stroke:none"
         d="m 0,0 c 0,0 2.589,-14.834 7.779,-17.937 5.19,-3.101 16.489,-12.802 16.489,-12.802 l -5.713,8.408 -6.421,9.922 v 11.434 z" />
    </g>
    <g
       transform="matrix(0.35277777,0,0,-0.35277777,97.855581,221.36552)"
       id="g434">
      <path
         inkscape:connector-curvature="0"
         id="path436"
         style="fill:#c6c6b6;fill-opacity:1;fill-rule:nonzero;stroke:none"
         d="M 0,0 C 0,0 18.775,6.253 29.784,3.629 40.793,1.004 28.721,-1.816 34.04,-2.543 39.358,-3.269 44.678,-7.261 30.849,-7.988 17.021,-8.714 -15.427,-8.33 0,0" />
    </g>
    <g
       transform="matrix(0.35277777,0,0,-0.35277777,229.62239,207.13104)"
       id="g438">
      <path
         inkscape:connector-curvature="0"
         id="path440"
         style="fill:#afafa3;fill-opacity:1;fill-rule:nonzero;stroke:none"
         d="m 0,0 3.588,-20.023 -15.957,-22.307 3.465,21.165 -3.465,10.276 -3.187,7.078 z" />
    </g>
    <g
       transform="matrix(0.35277777,0,0,-0.35277777,62.170066,173.80386)"
       id="g442">
      <path
         inkscape:connector-curvature="0"
         id="path444"
         style="fill:#dbdbcc;fill-opacity:1;fill-rule:nonzero;stroke:none"
         d="m 0,0 c 0,0 -9.474,-3.419 -3.624,-8.502 5.851,-5.083 10.639,-15.972 6.916,-15.972 -3.723,0 -44.679,-10.526 -38.296,-12.703 6.383,-2.178 16.596,-11.254 19.467,-14.521 2.872,-3.266 4.467,-6.17 8.723,-16.697 4.254,-10.528 2.096,-13.43 11.419,-15.246 9.323,-1.814 24.749,-7.258 30.599,-10.164 5.85,-2.902 11.17,-10.888 20.211,-11.253 9.041,-0.362 33.242,-8.167 38.295,-15.245 5.053,-7.078 12.765,-4.718 19.147,-3.992 6.382,0.726 38.827,3.992 38.827,-6.171 0,0 17.021,3.993 22.339,0 5.319,-3.993 12.764,-12.705 60.101,-10.526 47.337,2.177 63.826,-2.904 72.335,13.067 0,0 18.431,-11.109 68.614,1.452 50.183,12.56 26.857,20.871 26.857,20.871 0,0 14.627,-0.906 40.689,9.983 26.062,10.89 49.029,14.636 49.029,14.636 0,0 -5.929,-11.767 -29.873,-17.558 -23.943,-5.79 -55.311,-9.341 -47.606,-9.563 7.708,-0.218 27.037,-9.143 -0.978,-15.934 -28.015,-6.791 -80.669,-20.946 -102.211,-7.7 0,0 -5.203,-15.97 -64.089,-14.79 -58.889,1.178 -68.614,-1.724 -78.718,13.159 l -27.659,-4.72 c 0,0 4.84,9.921 -1.896,10.933 -6.736,1.012 -34.803,-4.582 -42.78,-1.858 -7.979,2.722 -2.13,7.442 -11.436,10.89 -9.307,3.448 -19.412,5.809 -27.658,7.077 -8.244,1.27 -13.297,4.539 -21.54,11.071 -8.245,6.536 -20.743,3.812 -30.583,6.716 -9.839,2.905 -16.652,8.063 -16.304,17.645 0.348,9.58 -0.889,8.966 -9.977,11.633 -9.089,2.666 -11.539,12.116 -15.189,14.783 -3.648,2.669 -18.196,6.757 -12.43,11.477 5.765,4.718 44.591,15.427 44.591,15.427 0,0 -4.922,10.216 -9.774,12.367 C -19.312,-7.775 -9.563,-2.689 0,0" />
    </g>
    <g
       transform="matrix(0.35277777,0,0,-0.35277777,33.033515,298.16012)"
       id="g446">
      <g
         id="g448" />
      <g
         id="g460">
        <g
           style="opacity:0.19999701"
           id="g458"
           clip-path="url(#clipPath452)">
          <g
             id="g456"
             transform="translate(84.417,322.1436)">
            <path
               inkscape:connector-curvature="0"
               id="path454"
               style="fill:#000000;fill-opacity:1;fill-rule:nonzero;stroke:none"
               d="m 0,0 c 0,0 -11.039,-18.29 12.49,-21.651 23.529,-3.362 77.087,5.462 90.643,2.101 13.555,-3.362 22.799,17.885 50.949,6.841 28.151,-11.043 125.208,-11.228 122.267,-5.043 -2.941,6.185 -29.557,24.118 -29.557,24.118 L 105.765,22.045 Z" />
          </g>
        </g>
      </g>
    </g>
    <g
       transform="matrix(0.35277777,0,0,-0.35277777,108.82009,128.82128)"
       id="g462">
      <path
         inkscape:connector-curvature="0"
         id="path464"
         style="fill:#c6c7b8;fill-opacity:1;fill-rule:nonzero;stroke:none"
         d="M 0,0 36.609,2.772 63.287,-7.17 47.759,-15.227 Z" />
    </g>
    <g
       transform="matrix(0.35277777,0,0,-0.35277777,79.385196,181.85024)"
       id="g466">
      <path
         inkscape:connector-curvature="0"
         id="path468"
         style="fill:#828277;fill-opacity:1;fill-rule:nonzero;stroke:none"
         d="m 0,0 c 0,0 36.272,46.186 34.912,108.215 12.014,5.353 51.694,18.099 48.526,42.103 19.098,-5.287 45.231,-10.552 45.231,-10.552 l 18.055,3.382 0.271,-46.016 31.383,-42.625 c 0,0 -0.8,-35.358 21.441,-62.639 z" />
    </g>
    <g
       transform="matrix(0.35277777,0,0,-0.35277777,142.31299,162.62145)"
       id="g470">
      <path
         inkscape:connector-curvature="0"
         id="path472"
         style="fill:#8b8c81;fill-opacity:1;fill-rule:nonzero;stroke:none"
         d="m 0,0 -31.383,42.625 0.013,0.65 L -62.452,35.201 -93.674,11.766 0.007,-1.96 C -0.035,-0.702 0,0 0,0" />
    </g>
    <g
       transform="matrix(0.35277777,0,0,-0.35277777,33.033515,298.16012)"
       id="g474">
      <g
         id="g476" />
      <g
         id="g488">
        <g
           style="opacity:0.19999701"
           id="g486"
           clip-path="url(#clipPath480)">
          <g
             id="g484"
             transform="translate(263.1387,376.4141)">
            <path
               inkscape:connector-curvature="0"
               id="path482"
               style="fill:#000000;fill-opacity:1;fill-rule:nonzero;stroke:none"
               d="m 0,0 c 0,0 1.149,-24.669 -2.09,-26.357 -3.272,-1.678 -27.481,-24.422 -27.481,-24.422 l 43.696,-2.723 z" />
          </g>
        </g>
      </g>
    </g>
    <g
       transform="matrix(0.35277777,0,0,-0.35277777,33.033515,298.16012)"
       id="g490">
      <g
         id="g492" />
      <g
         id="g504">
        <g
           style="opacity:0.19999701"
           id="g502"
           clip-path="url(#clipPath496)">
          <g
             id="g500"
             transform="translate(309.8232,380.6904)">
            <path
               inkscape:connector-curvature="0"
               id="path498"
               style="fill:#000000;fill-opacity:1;fill-rule:nonzero;stroke:none"
               d="m 0,0 -24.416,4.288 c 0,0 -21.554,-2.218 -29.855,1.591 -4.887,2.244 -12.965,-2.857 -25.107,-6.029 l -2.486,-5.663 c 10.478,0.42 20.934,2.127 26.118,5.19 16.805,0.184 34.904,-1.922 34.904,-1.922 L 0.226,-3.479 h 0.01 C 0.119,-2.159 0.044,-0.994 0,0" />
          </g>
        </g>
      </g>
    </g>
    <g
       transform="matrix(0.35277777,0,0,-0.35277777,120.28124,150.20325)"
       id="g506">
      <path
         inkscape:connector-curvature="0"
         id="path508"
         style="fill:#b5b6a8;fill-opacity:1;fill-rule:nonzero;stroke:none"
         d="m 0,0 14.023,50.301 -1.28,-0.243 c 0,0 -26.133,5.265 -45.231,10.552 C -29.32,36.606 -69,23.86 -81.014,18.507 -80.68,2.87 -69.221,-15.513 -74.709,-28.245 -37.858,-23.896 -4.395,-15.626 0,0" />
    </g>
    <g
       transform="matrix(0.35277777,0,0,-0.35277777,112.93839,183.31751)"
       id="g510">
      <path
         inkscape:connector-curvature="0"
         id="path512"
         style="fill:#a5a699;fill-opacity:1;fill-rule:nonzero;stroke:none"
         d="M 0,0 C 29.311,31.594 37.066,75.482 20.814,93.867 -34.297,79.033 -60.199,112.374 -60.199,112.374 -58.839,50.345 -95.111,4.159 -95.111,4.159 Z" />
    </g>
    <g
       transform="matrix(0.35277777,0,0,-0.35277777,33.033515,298.16012)"
       id="g514">
      <g
         id="g516" />
      <g
         id="g528">
        <g
           style="opacity:0.19999701"
           id="g526"
           clip-path="url(#clipPath520)">
          <g
             id="g524"
             transform="translate(134.9131,324.2676)">
            <path
               inkscape:connector-curvature="0"
               id="path522"
               style="fill:#000000;fill-opacity:1;fill-rule:nonzero;stroke:none"
               d="m 0,0 80.832,-3.533 c 1.005,1.08 1.976,2.178 2.927,3.286 l -28.051,8.605 -20.724,21.704 0.63,17.529 c 0,0 2.511,0 -8.164,2.085 C 29.961,35.902 8.607,20.879 8.607,20.879 6.361,14.899 2.192,5.1 0,0" />
          </g>
        </g>
      </g>
    </g>
    <g
       transform="matrix(0.35277777,0,0,-0.35277777,33.033515,298.16012)"
       id="g530">
      <g
         id="g532" />
      <g
         id="g544">
        <g
           style="opacity:0.19999701"
           id="g542"
           clip-path="url(#clipPath536)">
          <g
             id="g540"
             transform="translate(227.4971,476.6992)">
            <path
               inkscape:connector-curvature="0"
               id="path538"
               style="fill:#000000;fill-opacity:1;fill-rule:nonzero;stroke:none"
               d="M 0,0 -7.046,-29.029 3.019,-0.789 13.337,-3.115 6.745,-19.588 19.433,-0.944 Z" />
          </g>
        </g>
      </g>
    </g>
    <g
       transform="matrix(0.35277777,0,0,-0.35277777,33.033515,298.16012)"
       id="g546">
      <g
         id="g548" />
      <g
         id="g560">
        <g
           style="opacity:0.19999701"
           id="g558"
           clip-path="url(#clipPath552)">
          <g
             id="g556"
             transform="translate(250.7612,432.7461)">
            <path
               inkscape:connector-curvature="0"
               id="path554"
               style="fill:#000000;fill-opacity:1;fill-rule:nonzero;stroke:none"
               d="m 0,0 c 0,0 -6.995,-7.688 -33.104,-4.099 3.037,-3.653 23.11,-5.938 33.613,1.425 0.215,-2.818 5.903,-12.194 1.956,-13.336 3.438,-8.363 6.115,-15.496 6.115,-15.496 l -4.774,14.38 c 0,0 5.527,6.278 -3.806,17.126" />
          </g>
        </g>
      </g>
    </g>
    <g
       transform="matrix(0.35277777,0,0,-0.35277777,125.863,165.36959)"
       id="g562">
      <path
         inkscape:connector-curvature="0"
         id="path564"
         style="fill:#a5a699;fill-opacity:1;fill-rule:nonzero;stroke:none"
         d="M 0,0 C 0,0 7.164,-23.161 -0.832,-29.187 -8.817,-35.208 -17.99,-54.245 -17.99,-54.245 l 100.654,-5.064 -9.72,29.329 5.62,26.859 -35.371,-2.774 z" />
    </g>
    <g
       transform="matrix(0.35277777,0,0,-0.35277777,33.033515,298.16012)"
       id="g566">
      <g
         id="g568" />
      <g
         id="g580">
        <g
           style="opacity:0.19999701"
           id="g578"
           clip-path="url(#clipPath572)">
          <g
             id="g576"
             transform="translate(281.5352,372.3682)">
            <path
               inkscape:connector-curvature="0"
               id="path574"
               style="fill:#000000;fill-opacity:1;fill-rule:nonzero;stroke:none"
               d="m 0,0 3.331,-10.512 1.59,9.474 3.089,0.97 C 8.01,-0.068 5.093,0.935 0,0" />
          </g>
        </g>
      </g>
    </g>
    <g
       transform="matrix(0.35277777,0,0,-0.35277777,33.033515,298.16012)"
       id="g582">
      <g
         id="g584" />
      <g
         id="g596">
        <g
           style="opacity:0.19999701"
           id="g594"
           clip-path="url(#clipPath588)">
          <g
             id="g592"
             transform="translate(297.4004,369.1123)">
            <path
               inkscape:connector-curvature="0"
               id="path590"
               style="fill:#000000;fill-opacity:1;fill-rule:nonzero;stroke:none"
               d="M 0,0 1.85,-17.046 3.517,-0.747 7.846,0.376 C 7.846,0.376 5.104,0.918 0,0" />
          </g>
        </g>
      </g>
    </g>
    <g
       transform="matrix(0.35277777,0,0,-0.35277777,125.863,165.36959)"
       id="g598">
      <path
         inkscape:connector-curvature="0"
         id="path600"
         style="fill:#c6c7b8;fill-opacity:1;fill-rule:nonzero;stroke:none"
         d="m 0,0 c 0,0 7.986,-1.829 18.396,-4.046 0.834,-0.176 7.117,0.107 8.011,-0.068 0.766,-0.166 -3.893,-0.801 -3.09,-0.97 3.563,-0.757 7.265,-1.504 10.945,-2.218 0.595,-0.121 6.482,0.407 7.047,0.303 0.703,-0.143 -3.981,-0.92 -3.293,-1.047 12.799,-2.444 24.427,-4.311 26.789,-3.44 39.054,14.272 -17.776,11.102 -17.776,11.102 0.035,-2.341 -0.212,-3.855 -0.212,-3.855 L 17.06,0.542 Z" />
    </g>
    <g
       transform="matrix(0.35277777,0,0,-0.35277777,155.83944,188.99846)"
       id="g602">
      <path
         inkscape:connector-curvature="0"
         id="path604"
         style="fill:#8b8c81;fill-opacity:1;fill-rule:nonzero;stroke:none"
         d="M 0,0 -11.906,36.615 C -26.64,27.44 -77.538,36.39 -85.66,37.903 c -0.052,-0.035 -0.096,-0.071 -0.145,-0.111 -7.985,-6.021 -17.158,-25.058 -17.158,-25.058 z" />
    </g>
    <g
       transform="matrix(0.35277777,0,0,-0.35277777,149.45431,176.93272)"
       id="g606">
      <path
         inkscape:connector-curvature="0"
         id="path608"
         style="fill:#828277;fill-opacity:1;fill-rule:nonzero;stroke:none"
         d="M 0,0 -14.863,-24.994 15.791,-32.668 6.194,2.413 C 4.569,1.388 2.422,0.591 0,0" />
    </g>
    <g
       transform="matrix(0.35277777,0,0,-0.35277777,33.033515,298.16012)"
       id="g610">
      <g
         id="g612" />
      <g
         id="g624">
        <g
           style="opacity:0.19999701"
           id="g622"
           clip-path="url(#clipPath616)">
          <g
             id="g620"
             transform="translate(255.3608,386.5498)">
            <path
               inkscape:connector-curvature="0"
               id="path618"
               style="fill:#000000;fill-opacity:1;fill-rule:nonzero;stroke:none"
               d="m 0,0 c -2.556,-0.193 -34.7,-2.799 -35.234,-2.802 -0.561,0.006 -40.278,-0.341 -40.278,-0.341 l 40.11,-2.281 34.558,-0.936 C -0.465,-4.21 -0.172,-2.073 0,0" />
          </g>
        </g>
      </g>
    </g>
    <g
       transform="matrix(0.35277777,0,0,-0.35277777,33.033515,298.16012)"
       id="g626">
      <g
         id="g628" />
      <g
         id="g640">
        <g
           style="opacity:0.19999701"
           id="g638"
           clip-path="url(#clipPath632)">
          <g
             id="g636"
             transform="translate(244.2344,350.915)">
            <path
               inkscape:connector-curvature="0"
               id="path634"
               style="fill:#000000;fill-opacity:1;fill-rule:nonzero;stroke:none"
               d="M 0,0 -26.516,1.938 0.883,2.002 2.364,4.607 -8.18,6.186 4.749,7.618 Z" />
          </g>
        </g>
      </g>
    </g>
    <g
       transform="matrix(0.35277777,0,0,-0.35277777,33.033515,298.16012)"
       id="g642">
      <g
         id="g644" />
      <g
         id="g656">
        <g
           style="opacity:0.19999701"
           id="g654"
           clip-path="url(#clipPath648)">
          <g
             id="g652"
             transform="translate(329.9512,359.3564)">
            <path
               inkscape:connector-curvature="0"
               id="path650"
               style="fill:#000000;fill-opacity:1;fill-rule:nonzero;stroke:none"
               d="m 0,0 c -19.988,-6.146 -60.191,2.672 -64.097,3.538 0.378,-4.021 0.359,-8.216 -0.74,-11.434 C -30.301,-11.193 -1.143,-4.532 0,0" />
          </g>
        </g>
      </g>
    </g>
    <g
       transform="matrix(0.35277777,0,0,-0.35277777,93.595192,185.37906)"
       id="g658">
      <path
         inkscape:connector-curvature="0"
         id="path660"
         style="fill:#a5a699;fill-opacity:1;fill-rule:nonzero;stroke:none"
         d="m 0,0 -13.73,59.238 1.373,18.673 -8.288,2.213 -23.07,-83.657 16.291,-8.411 17.445,7.606 z" />
    </g>
    <g
       transform="matrix(0.35277777,0,0,-0.35277777,84.780228,175.9295)"
       id="g662">
      <path
         inkscape:connector-curvature="0"
         id="path664"
         style="fill:#8b8c81;fill-opacity:1;fill-rule:nonzero;stroke:none"
         d="M 0,0 11.904,51.321 12.63,51.125 11.257,32.452 24.987,-26.786 -1.845,-38.474 Z" />
    </g>
    <g
       transform="matrix(0.35277777,0,0,-0.35277777,33.033515,298.16012)"
       id="g666">
      <g
         id="g668" />
      <g
         id="g680">
        <g
           style="opacity:0.19999701"
           id="g678"
           clip-path="url(#clipPath672)">
          <g
             id="g676"
             transform="translate(152.6494,340.0381)">
            <path
               inkscape:connector-curvature="0"
               id="path674"
               style="fill:#000000;fill-opacity:1;fill-rule:nonzero;stroke:none"
               d="m 0,0 -8.213,-2.284 7.658,0.099 4.155,-3.561 -1.967,-22.177 5.16,2.268 C 6.486,-21.372 5.967,-6.448 5.967,-6.448 l -4.378,6.284 0.253,14.313 z" />
          </g>
        </g>
      </g>
    </g>
    <g
       transform="matrix(0.35277777,0,0,-0.35277777,33.033515,298.16012)"
       id="g682">
      <g
         id="g684" />
      <g
         id="g696">
        <g
           style="opacity:0.19999701"
           id="g694"
           clip-path="url(#clipPath688)">
          <g
             id="g692"
             transform="translate(135.3066,323.0215)">
            <path
               inkscape:connector-curvature="0"
               id="path690"
               style="fill:#000000;fill-opacity:1;fill-rule:nonzero;stroke:none"
               d="m 0,0 -2.544,-9.341 3.319,-1.953 z" />
          </g>
        </g>
      </g>
    </g>
    <g
       transform="matrix(0.35277777,0,0,-0.35277777,33.033515,298.16012)"
       id="g698">
      <g
         id="g700" />
      <g
         id="g712">
        <g
           style="opacity:0.19999701"
           id="g710"
           clip-path="url(#clipPath704)">
          <g
             id="g708"
             transform="translate(133.6943,336.9912)">
            <path
               inkscape:connector-curvature="0"
               id="path706"
               style="fill:#000000;fill-opacity:1;fill-rule:nonzero;stroke:none"
               d="M 0,0 2.256,0.297 0.486,1.739 Z" />
          </g>
        </g>
      </g>
    </g>
    <g
       transform="matrix(0.35277777,0,0,-0.35277777,88.411369,187.27216)"
       id="g714">
      <path
         inkscape:connector-curvature="0"
         id="path716"
         style="fill:#b5b6a8;fill-opacity:1;fill-rule:nonzero;stroke:none"
         d="M 0,0 C -6.246,7.422 8.177,12.559 14.423,17.119 20.669,21.684 39.898,5.136 41.821,2.857 43.749,0.574 22.593,-2.279 22.593,-2.279 Z" />
    </g>
    <g
       transform="matrix(0.35277777,0,0,-0.35277777,88.411369,187.27216)"
       id="g718">
      <path
         inkscape:connector-curvature="0"
         id="path720"
         style="fill:#828277;fill-opacity:1;fill-rule:nonzero;stroke:none"
         d="M 0,0 20.187,-2.034 C 16.845,5.389 14.423,17.119 14.423,17.119 8.177,12.559 -6.246,7.422 0,0" />
    </g>
    <g
       transform="matrix(0.35277777,0,0,-0.35277777,33.033515,298.16012)"
       id="g722">
      <g
         id="g724" />
      <g
         id="g736">
        <g
           style="opacity:0.10000598"
           id="g734"
           clip-path="url(#clipPath728)">
          <g
             id="g732"
             transform="translate(198.7979,317.1855)">
            <path
               inkscape:connector-curvature="0"
               id="path730"
               style="fill:#000000;fill-opacity:1;fill-rule:nonzero;stroke:none"
               d="m 0,0 c -0.318,0.376 -1.14,1.171 -2.27,2.174 -3.213,-5.891 -17.592,-2.621 -21.765,0.679 -5.022,-8.096 -14.059,-2.516 -18.324,0.832 -1.332,-1.984 -1.487,-4.138 0.538,-6.542 l 22.592,-2.28 c 0,0 21.156,2.854 19.229,5.137" />
          </g>
        </g>
      </g>
    </g>
    <g
       transform="matrix(0.35277777,0,0,-0.35277777,33.033515,298.16012)"
       id="g738">
      <g
         id="g740" />
      <g
         id="g752">
        <g
           style="opacity:0.5"
           id="g750"
           clip-path="url(#clipPath744)">
          <g
             id="g748"
             transform="translate(174.0391,321.4629)">
            <path
               inkscape:connector-curvature="0"
               id="path746"
               style="fill:#ffffff;fill-opacity:1;fill-rule:nonzero;stroke:none"
               d="M 0,0 C 0,0 -0.359,2.563 -1.04,6.567 -0.193,9.643 4.476,10.13 20.835,-1.05 7.612,9.511 -3.747,13.271 -2.64,8.277 -1.437,2.854 0,0 0,0" />
          </g>
        </g>
      </g>
    </g>
    <g
       transform="matrix(0.35277777,0,0,-0.35277777,62.8305,185.37322)"
       id="g754">
      <path
         inkscape:connector-curvature="0"
         id="path756"
         style="fill:#b5b6a8;fill-opacity:1;fill-rule:nonzero;stroke:none"
         d="m 0,0 c 0,0 10.155,28.14 25.958,32.157 15.799,4.016 23.698,15.409 23.698,15.409 0,0 12.418,-5.358 16.927,-14.74 4.519,-9.377 -1.125,-26.793 6.209,-30.807 7.335,-4.033 21.448,-4.693 21.448,-10.051 0,-5.357 -75.62,-7.366 -75.62,-7.366 0,0 -19.75,7.366 -18.62,15.398" />
    </g>
    <g
       transform="matrix(0.35277777,0,0,-0.35277777,71.988081,174.02883)"
       id="g758">
      <path
         inkscape:connector-curvature="0"
         id="path760"
         style="fill:#a5a699;fill-opacity:1;fill-rule:nonzero;stroke:none"
         d="m 0,0 c -15.803,-4.018 -25.958,-32.157 -25.958,-32.157 -1.061,-7.525 16.211,-14.461 18.392,-15.32 C -8.1,-24.529 4.909,-15.003 12.98,-6.028 22.005,4.016 23.697,15.409 23.697,15.409 23.697,15.409 15.799,4.016 0,0" />
    </g>
    <g
       transform="matrix(0.35277777,0,0,-0.35277777,33.033515,298.16012)"
       id="g762">
      <g
         id="g764" />
      <g
         id="g776">
        <g
           style="opacity:0.10000598"
           id="g774"
           clip-path="url(#clipPath768)">
          <g
             id="g772"
             transform="translate(103.084,304.3125)">
            <path
               inkscape:connector-curvature="0"
               id="path770"
               style="fill:#000000;fill-opacity:1;fill-rule:nonzero;stroke:none"
               d="m 0,0 c 0,0 75.62,2.01 75.62,7.366 0,0.158 -0.053,0.306 -0.081,0.441 C 58.05,7.003 28.027,8.014 24.829,16.076 20.318,27.453 6.771,28.8 3.383,19.421 0,10.04 -18.62,15.398 -18.62,15.398 l 0.075,-1.722 C -16.991,6.334 0,0 0,0" />
          </g>
        </g>
      </g>
    </g>
    <g
       transform="matrix(0.35277777,0,0,-0.35277777,33.033515,298.16012)"
       id="g778">
      <g
         id="g780" />
      <g
         id="g792">
        <g
           style="opacity:0.19999701"
           id="g790"
           clip-path="url(#clipPath784)">
          <g
             id="g788"
             transform="translate(107.5977,349.8535)">
            <path
               inkscape:connector-curvature="0"
               id="path786"
               style="fill:#ffffff;fill-opacity:1;fill-rule:nonzero;stroke:none"
               d="m 0,0 c 0,0 12.979,-5.347 18.058,-1.339 6.211,-10.045 19.75,-27.459 28.215,-20.083 -1.691,-8.721 -18.05,-4.017 -29.339,14.729 C 12.979,-9.373 0.57,-4.021 0,0" />
          </g>
        </g>
      </g>
    </g>
    <g
       transform="matrix(0.35277777,0,0,-0.35277777,33.033515,298.16012)"
       id="g794">
      <g
         id="g796" />
      <g
         id="g808">
        <g
           style="opacity:0.10000598"
           id="g806"
           clip-path="url(#clipPath800)">
          <g
             id="g804"
             transform="translate(171.981,316.8115)">
            <path
               inkscape:connector-curvature="0"
               id="path802"
               style="fill:#000000;fill-opacity:1;fill-rule:nonzero;stroke:none"
               d="m 0,0 c -4.646,1.51 -10.701,2.709 -14.726,4.918 -7.334,4.015 -1.69,21.431 -6.208,30.808 0,0 -23.984,-47.27 20.934,-35.726" />
          </g>
        </g>
      </g>
    </g>
    <g
       transform="matrix(0.35277777,0,0,-0.35277777,33.033515,298.16012)"
       id="g810">
      <g
         id="g812" />
      <g
         id="g824">
        <g
           style="opacity:0.19999701"
           id="g822"
           clip-path="url(#clipPath816)">
          <g
             id="g820"
             transform="translate(337.7227,308.1807)">
            <path
               inkscape:connector-curvature="0"
               id="path818"
               style="fill:#000000;fill-opacity:1;fill-rule:nonzero;stroke:none"
               d="m 0,0 c 0,-2.136 -13.308,-3.868 -29.726,-3.868 -16.417,0 -29.724,1.732 -29.724,3.868 0,2.136 13.307,3.868 29.724,3.868 C -13.308,3.868 0,2.136 0,0" />
          </g>
        </g>
      </g>
    </g>
    <g
       transform="matrix(0.35277777,0,0,-0.35277777,242.41883,109.92629)"
       id="g826">
      <path
         inkscape:connector-curvature="0"
         id="path828"
         style="fill:#cccccc;fill-opacity:1;fill-rule:nonzero;stroke:none"
         d="m 0,0 c -1.424,3.979 -1.33,8.471 -0.601,12.58 0.55,3.093 4.554,16.931 9.985,12.335 3.497,-2.959 4.953,-8.65 5.905,-12.927 C 16.09,8.388 16.092,4.615 15.277,1.02 14.464,-2.573 12.776,-5.822 10.559,-8.693 9.729,-8.431 8.906,-8.151 8.098,-7.832 4.393,-6.367 1.356,-3.795 0,0 m -43.665,-25.953 c -7.057,1.134 -14.193,3.665 -19.484,8.624 -6.126,5.742 -10.376,16.079 -5.386,23.807 5.913,9.153 19.438,1.015 24.327,-4.97 6.243,-7.646 7.645,-18.532 7.246,-28.161 -2.267,0.123 -4.511,0.348 -6.703,0.7 m -32.791,-49.484 c -5.858,-0.644 -12.761,-0.483 -18.314,1.648 -5.064,1.942 -9.525,6.187 -12.409,10.688 -3.226,5.037 -3.789,10.847 -0.414,15.933 2.19,3.299 5.472,6.415 9.658,6.262 3.57,-0.131 6.72,-2.918 9.05,-5.344 3.175,-3.304 5.584,-7.323 7.636,-11.395 2.032,-4.033 3.591,-8.321 4.605,-12.722 0.401,-1.737 0.578,-3.384 0.592,-5.014 -0.135,-0.016 -0.268,-0.04 -0.404,-0.056 M 60.451,-6.58 c -7.25,-1.85 -14.72,-2.99 -22.132,-3.678 -7.59,-0.705 -15.757,-1.084 -23.396,0.447 2.177,3.184 3.787,6.739 4.583,10.547 1.719,8.231 -0.463,18.326 -5.378,25.12 -1.978,2.735 -4.736,4.557 -8.19,3.975 C 2.836,29.31 0.5,26.301 -1.013,23.796 -5.219,16.83 -6.529,7.133 -4.198,-0.655 -2.431,-6.559 2.193,-10.021 7.55,-12.059 6.154,-13.424 4.647,-14.68 3.074,-15.811 -6.92,-22.994 -19.924,-26.6 -32.52,-26.746 c 0.428,9.712 -1.397,19.382 -6.078,27.437 -4.89,8.42 -14.976,15.219 -25.004,13.639 -9.278,-1.461 -12.22,-11.758 -10.863,-19.767 2.909,-17.165 21.158,-24.34 36.464,-25.331 0.245,-0.015 0.493,-0.019 0.741,-0.033 -1.019,-9.743 -4.363,-19.234 -9.888,-27.341 -5.812,-8.524 -14.764,-14.299 -24.707,-16.522 -0.033,0.871 -0.095,1.748 -0.221,2.64 -0.602,4.266 -2.016,8.426 -3.675,12.386 -3.3,7.878 -8.183,16.353 -15.704,20.877 -8.031,4.831 -15.538,0.072 -20.172,-6.909 -6.598,-9.936 0.604,-22.008 8.855,-28.226 7.375,-5.558 17.209,-6.803 26.415,-5.756 -0.156,-1.053 -0.362,-2.123 -0.608,-3.231 -2.114,-9.506 -6.262,-19.168 -13.454,-25.937 -7.597,-7.151 -17.53,-7.15 -26.431,-2.446 -2.391,1.264 -4.512,-2.359 -2.119,-3.624 9.768,-5.16 20.756,-5.579 29.67,1.533 8.582,6.842 13.423,17.605 16.061,28.015 0.545,2.15 0.978,4.248 1.216,6.356 0.801,0.156 1.598,0.323 2.38,0.508 11.197,2.665 20.634,9.888 26.916,19.412 5.251,7.961 8.772,17.961 9.888,28.164 14.539,0.107 29.762,4.551 40.977,13.729 1.4,1.146 2.718,2.398 3.933,3.741 1.19,-0.282 2.383,-0.519 3.565,-0.707 10.278,-1.631 20.881,-0.759 31.127,0.682 4.605,0.648 9.181,1.537 13.687,2.665 z" />
    </g>
    <g
       transform="matrix(0.35277777,0,0,-0.35277777,183.84566,138.40382)"
       id="g830">
      <path
         inkscape:connector-curvature="0"
         id="path832"
         style="fill:#fafcff;fill-opacity:1;fill-rule:nonzero;stroke:none"
         d="M 0,0 C 0,0 -24.955,-20.071 -43.901,18.819 L -69.164,6.821 c 0,0 6.895,-38.508 38.891,-41.342 l 31.994,-2.835 c 0,0 5.284,29.505 -1.721,37.356" />
    </g>
    <g
       transform="matrix(0.35277777,0,0,-0.35277777,159.44628,135.99742)"
       id="g834">
      <path
         inkscape:connector-curvature="0"
         id="path836"
         style="fill:#89121b;fill-opacity:1;fill-rule:nonzero;stroke:none"
         d="m 0,0 c 0,0 -5.985,4.852 -6.317,11.998 0,0 -7.976,3.158 -12.132,2.494 -4.155,-0.666 -6.981,3.821 -5.485,6.481 1.496,2.66 8.643,8.144 17.95,1.662 0,0 2.825,-1.329 1.662,1.662 -1.163,2.992 -2.991,3.491 -6.647,5.319 -3.657,1.827 -6.981,2.825 -6.649,5.984 0.332,3.157 0.167,6.148 4.156,6.314 3.988,0.167 16.62,-9.307 17.95,-10.471 1.329,-1.163 2.325,0.499 2.325,1.33 0,0.831 -7.479,8.311 -8.974,10.305 -1.496,1.994 -1.829,4.155 -1.164,5.984 0.665,1.829 5.984,3.657 9.142,1.829 3.157,-1.829 12.631,-11.635 14.292,-18.284 1.662,-6.648 1.995,-4.986 1.995,-4.986 0,0 0.996,3.158 5.318,4.155 4.322,0.997 8.476,0.166 7.479,-3.823 -0.998,-3.988 -4.986,-6.482 -6.315,-7.146 -1.33,-0.664 -1.496,-1.279 -1.496,-1.279 0,0 3.129,-5.174 -1.828,-7.53 L 6.315,1.86 0.831,0" />
    </g>
    <g
       transform="matrix(0.35277777,0,0,-0.35277777,183.11633,137.59042)"
       id="g838">
      <path
         inkscape:connector-curvature="0"
         id="path840"
         style="fill:#89121b;fill-opacity:1;fill-rule:nonzero;stroke:none"
         d="m 0,0 c -4.327,-6.811 -1.683,-22.658 3.445,-32.099 1.824,-3.358 3.213,4.995 1.856,8.616 C 3.158,-17.76 1.698,-8.479 5.167,-3.02 7.243,0.248 2.063,3.246 0,0" />
    </g>
    <g
       transform="matrix(0.35277777,0,0,-0.35277777,220.84841,151.37391)"
       id="g842">
      <path
         inkscape:connector-curvature="0"
         id="path844"
         style="fill:#89121b;fill-opacity:1;fill-rule:nonzero;stroke:none"
         d="m 0,0 c 0,0 1.746,-5.359 1.746,-5.858 0,-0.499 -2.244,0.624 -3.865,-2.618 -1.619,-3.241 -3.49,-13.212 0,-16.08 3.49,-2.866 6.107,-2.119 6.107,-2.119 0,0 1.87,-5.983 4.988,-6.356 3.115,-0.375 10.594,0.748 11.84,2.866 l 1.247,2.119 c 0,0 4.488,-1.246 7.106,1.745 2.616,2.992 3.364,4.488 3.364,4.488 0,0 3.242,-0.997 5.61,2.243 2.369,3.242 2.494,4.612 2.369,7.23 C 40.387,-9.722 35.65,4.612 34.777,6.108 33.906,7.604 33.656,8.801 33.656,8.801 L 16.953,12.59 8.103,7.23 Z" />
    </g>
    <g
       transform="matrix(0.35277777,0,0,-0.35277777,209.12508,181.75861)"
       id="g846">
      <path
         inkscape:connector-curvature="0"
         id="path848"
         style="fill:#c1272d;fill-opacity:1;fill-rule:nonzero;stroke:none"
         d="m 0,0 c 0,0 5.809,4.283 11.46,0 5.65,-4.284 9.475,-24.561 3.989,-33.202 -5.484,-8.643 -19.741,-18.777 -24.929,-10.638 -5.189,8.14 -3.01,8.539 -3.01,8.539 l 9.657,27.86 z" />
    </g>
    <g
       transform="matrix(0.35277777,0,0,-0.35277777,214.60485,184.06924)"
       id="g850">
      <path
         inkscape:connector-curvature="0"
         id="path852"
         style="fill:#a01823;fill-opacity:1;fill-rule:nonzero;stroke:none"
         d="m 0,0 c 1.387,-7.212 1.199,-15.526 -1.828,-20.295 -5.485,-8.642 -19.742,-18.776 -24.931,-10.638 -0.51,0.801 -0.931,1.508 -1.309,2.165 -0.274,-0.108 -1.697,-1.069 3.054,-8.522 5.189,-8.139 19.446,1.995 24.93,10.638 C 3.899,-20.377 2.972,-7.966 0,0" />
    </g>
    <g
       transform="matrix(0.35277777,0,0,-0.35277777,204.54895,128.43785)"
       id="g854">
      <path
         inkscape:connector-curvature="0"
         id="path856"
         style="fill:#acc4c7;fill-opacity:1;fill-rule:nonzero;stroke:none"
         d="m 0,0 28.253,-3.812 5.32,-104.415 -15.251,0.117 -15.248,50.739 3.906,35.899 -15.458,12.301 z" />
    </g>
    <g
       transform="matrix(0.35277777,0,0,-0.35277777,205.09417,128.55945)"
       id="g858">
      <path
         inkscape:connector-curvature="0"
         id="path860"
         style="fill:#313c42;fill-opacity:1;fill-rule:nonzero;stroke:none"
         d="m 0,0 c 0,0 20.393,-6.5 19.728,-20.461 -0.666,-13.961 3.656,-79.236 3.656,-79.236 0,0 0.914,-6.192 -7.371,-5.525 l -2.004,-4.157 2.754,1.497 h 15.265 l -5.32,104.415 z" />
    </g>
    <g
       transform="matrix(0.35277777,0,0,-0.35277777,185.05368,160.25639)"
       id="g862">
      <path
         inkscape:connector-curvature="0"
         id="path864"
         style="fill:#fafcff;fill-opacity:1;fill-rule:nonzero;stroke:none"
         d="m 0,0 c 0,0 33.511,-19.916 73.347,-3.103 l 2.441,41.745 8.725,33.69 L 56.121,77.807 9.473,64.817 -3.417,61.885 C -3.417,61.885 -5.259,24.903 0,0" />
    </g>
    <g
       transform="matrix(0.35277777,0,0,-0.35277777,208.71134,173.47797)"
       id="g866">
      <path
         inkscape:connector-curvature="0"
         id="path868"
         style="fill:#fafcff;fill-opacity:1;fill-rule:nonzero;stroke:none"
         d="m 0,0 c 0,0 9.579,15.318 6.286,34.376 l -21.243,2.853 -12.928,-3.716 -10.673,3.882 -18.615,0.499 -9.888,-0.415 c 0,0 -26.177,14.209 -40.138,4.237 -13.961,-9.971 -17.202,-13.711 -17.95,-28.918 l 36.647,-23.934 c 0,0 -3.073,13.462 -1.744,19.447 1.329,5.982 17.117,-1.165 17.782,-1.33 0.666,-0.168 23.675,-10.804 32.946,-6.981 0,0 -6.363,-19.113 0,-37.811 6.362,-18.699 21.071,-23.933 29.796,-20.442 8.726,3.49 16.952,17.7 10.97,34.153 0,0 -2.494,20.277 -1.248,24.1" />
    </g>
    <g
       transform="matrix(0.35277777,0,0,-0.35277777,214.86805,134.73927)"
       id="g870">
      <path
         inkscape:connector-curvature="0"
         id="path872"
         style="fill:#fafcff;fill-opacity:1;fill-rule:nonzero;stroke:none"
         d="m 0,0 c 0,0 32.16,-6.019 41.135,-17.736 8.975,-11.717 9.473,-20.617 9.473,-20.617 0,0 -11.218,-16.778 -33.656,-8.8 0,0 -4.106,16.51 -24.435,14.493 -0.328,-0.032 -0.659,-0.069 -0.994,-0.111 -21.19,-2.665 -6.481,16.781 -6.481,16.781 l 6.232,9.223 z" />
    </g>
    <g
       transform="matrix(0.35277777,0,0,-0.35277777,173.57651,161.09184)"
       id="g874">
      <path
         inkscape:connector-curvature="0"
         id="path876"
         style="fill:#89121b;fill-opacity:1;fill-rule:nonzero;stroke:none"
         d="M 0,0 C 1.088,9.147 -1.118,9.409 -1.691,9.329 -3.811,8.766 -5.81,7.889 -7.604,6.605 -14.06,1.994 -18.22,-1.286 -20.905,-4.979 -20.889,-4.985 -1.246,-10.468 0,0" />
    </g>
    <g
       transform="matrix(0.35277777,0,0,-0.35277777,202.81918,189.68336)"
       id="g878">
      <path
         inkscape:connector-curvature="0"
         id="path880"
         style="fill:#c1272d;fill-opacity:1;fill-rule:nonzero;stroke:none"
         d="m 0,0 c -6.222,0.601 -13.527,-6.848 -13.555,-6.874 6.768,-6.304 14.899,-7.698 20.535,-5.442 1.374,0.548 2.734,1.364 4.028,2.412 0.408,1.1 0.617,2.148 0.46,3.026 C 10.72,-2.684 6.232,-0.599 0,0" />
    </g>
    <g
       transform="matrix(0.35277777,0,0,-0.35277777,184.99476,159.463)"
       id="g882">
      <path
         inkscape:connector-curvature="0"
         id="path884"
         style="fill:#c1272d;fill-opacity:1;fill-rule:nonzero;stroke:none"
         d="m 0,0 c 0,0 22.127,-17.346 73.514,-5.352 0,0 1.144,-4.875 0.671,-6.745 0,0 -56.816,-14.833 -74.018,9.848 z" />
    </g>
    <g
       transform="matrix(0.35277777,0,0,-0.35277777,198.04497,164.02085)"
       id="g886">
      <path
         inkscape:connector-curvature="0"
         id="path888"
         style="fill:#c1272d;fill-opacity:1;fill-rule:nonzero;stroke:none"
         d="m 0,0 c -0.328,-3.91 -3.763,-6.814 -7.674,-6.486 l -5.465,0.458 c -3.911,0.329 -6.815,3.764 -6.487,7.674 0.328,3.91 3.764,6.815 7.674,6.487 L -6.486,7.675 C -2.576,7.347 0.328,3.91 0,0" />
    </g>
    <g
       transform="matrix(0.35277777,0,0,-0.35277777,188.40937,155.78811)"
       id="g890">
      <path
         inkscape:connector-curvature="0"
         id="path892"
         style="fill:#ed1c24;fill-opacity:1;fill-rule:nonzero;stroke:none"
         d="m 0,0 34.57,-2.733 1.539,38.05 -38.878,-4.078 z m 35.403,-3.674 -36.205,2.864 -2.91,32.827 40.733,4.272 z" />
    </g>
    <g
       transform="matrix(0.35277777,0,0,-0.35277777,190.93498,153.37239)"
       id="g894">
      <path
         inkscape:connector-curvature="0"
         id="path896"
         style="fill:#c1272d;fill-opacity:1;fill-rule:nonzero;stroke:none"
         d="m 0,0 c 0.137,-1.376 -0.87,-2.606 -2.249,-2.743 -1.378,-0.137 -2.605,0.87 -2.744,2.248 l -1.184,11.927 c -0.137,1.379 0.869,2.606 2.247,2.744 1.378,0.137 2.607,-0.87 2.745,-2.248 z" />
    </g>
    <g
       transform="matrix(0.35277777,0,0,-0.35277777,197.38834,147.49748)"
       id="g898">
      <path
         inkscape:connector-curvature="0"
         id="path900"
         style="fill:#89121b;fill-opacity:1;fill-rule:nonzero;stroke:none"
         d="m 0,0 c 0,-2.026 -1.643,-3.668 -3.668,-3.668 -2.026,0 -3.668,1.642 -3.668,3.668 0,2.025 1.642,3.668 3.668,3.668 C -1.643,3.668 0,2.025 0,0" />
    </g>
    <g
       transform="matrix(0.35277777,0,0,-0.35277777,196.63421,150.81511)"
       id="g902">
      <path
         inkscape:connector-curvature="0"
         id="path904"
         style="fill:#89121b;fill-opacity:1;fill-rule:nonzero;stroke:none"
         d="m 0,0 c 0,-0.847 -0.684,-1.532 -1.53,-1.532 -0.847,0 -1.531,0.685 -1.531,1.532 0,0.845 0.684,1.53 1.531,1.53 C -0.684,1.53 0,0.845 0,0" />
    </g>
    <g
       transform="matrix(0.35277777,0,0,-0.35277777,196.55084,153.19361)"
       id="g906">
      <path
         inkscape:connector-curvature="0"
         id="path908"
         style="fill:#89121b;fill-opacity:1;fill-rule:nonzero;stroke:none"
         d="m 0,0 c 0,-0.715 -0.579,-1.294 -1.294,-1.294 -0.715,0 -1.295,0.579 -1.295,1.294 0,0.715 0.58,1.295 1.295,1.295 C -0.579,1.295 0,0.715 0,0" />
    </g>
    <g
       transform="matrix(0.35277777,0,0,-0.35277777,190.08475,146.29927)"
       id="g910">
      <path
         inkscape:connector-curvature="0"
         id="path912"
         style="fill:#89121b;fill-opacity:1;fill-rule:nonzero;stroke:none"
         d="m 0,0 c 0,-1.386 -1.123,-2.508 -2.507,-2.508 -1.385,0 -2.509,1.122 -2.509,2.508 0,1.385 1.124,2.508 2.509,2.508 C -1.123,2.508 0,1.385 0,0" />
    </g>
    <g
       transform="matrix(0.35277777,0,0,-0.35277777,178.25374,157.81658)"
       id="g914">
      <path
         inkscape:connector-curvature="0"
         id="path916"
         style="fill:#c1272d;fill-opacity:1;fill-rule:nonzero;stroke:none"
         d="M 0,0 C -1.875,0.37 -3.788,0.643 -5.699,0.777 1.228,-9.575 4.61,-21.953 5.126,-34.418 c 1.583,-0.395 3.156,-0.9 4.523,-1.385 C 9.359,-23.268 6.277,-10.803 0,0" />
    </g>
    <g
       transform="matrix(0.35277777,0,0,-0.35277777,208.77643,178.34866)"
       id="g918">
      <path
         inkscape:connector-curvature="0"
         id="path920"
         style="fill:#c1272d;fill-opacity:1;fill-rule:nonzero;stroke:none"
         d="M 0,0 C -0.129,1.509 -0.247,3.056 -0.341,4.555 -14.689,6.201 -29.517,4.224 -42.428,-2.176 -42.514,-3.785 -42.55,-5.473 -42.514,-7.218 -29.695,-0.163 -14.508,1.78 0,0" />
    </g>
    <g
       transform="matrix(0.35277777,0,0,-0.35277777,177.4898,177.40643)"
       id="g922">
      <path
         inkscape:connector-curvature="0"
         id="path924"
         style="fill:#c1272d;fill-opacity:1;fill-rule:nonzero;stroke:none"
         d="M 0,0 C 0,0 4.987,-4.736 2.743,-9.972 0.499,-15.208 -10.47,-23.683 -22.935,-16.704 -35.4,-9.723 -52.279,4.653 -50.94,15.956 -47.781,42.606 0,0 0,0" />
    </g>
    <g
       transform="matrix(0.35277777,0,0,-0.35277777,177.4898,178.69627)"
       id="g926">
      <path
         inkscape:connector-curvature="0"
         id="path928"
         style="fill:#a01823;fill-opacity:1;fill-rule:nonzero;stroke:none"
         d="m 0,0 c 0,0 -47.158,42.046 -50.864,16.451 1.631,-10.701 16.6,-23.153 27.929,-29.499 12.465,-6.978 23.434,1.496 25.678,6.733 C 2.889,-5.976 3.001,-5.636 3.09,-5.3 2.335,-2.222 0,0 0,0" />
    </g>
    <g
       transform="matrix(0.35277777,0,0,-0.35277777,207.96236,133.57549)"
       id="g930">
      <path
         inkscape:connector-curvature="0"
         id="path932"
         style="fill:#89121b;fill-opacity:1;fill-rule:nonzero;stroke:none"
         d="m 0,0 -5.804,1.433 c -5.426,-14.884 0.205,-37.236 15.754,-43.111 0.214,-0.08 0.417,-0.132 0.616,-0.165 l 0.284,4.854 0.334,1.233 C -0.732,-30.889 -4.635,-11.088 0,0" />
    </g>
    <g
       transform="matrix(0.35277777,0,0,-0.35277777,180.568,126.9244)"
       id="g934">
      <path
         inkscape:connector-curvature="0"
         id="path936"
         style="fill:#fafcff;fill-opacity:1;fill-rule:nonzero;stroke:none"
         d="M 0,0 C 0,0 -3.988,1.496 -1.994,7.23 0,12.965 8.477,26.178 23.685,30.166 c 15.207,3.989 30.664,-2.243 36.646,-11.219 5.983,-8.974 10.721,-29.533 10.721,-29.533 0,0 0.374,-9.606 -18.948,-20.077 -19.32,-10.472 -32.533,-13.587 -41.009,-8.228 0,0 -3.741,2.743 -0.437,5.049 C 13.961,-31.535 0,0 0,0" />
    </g>
    <g
       transform="matrix(0.35277777,0,0,-0.35277777,180.568,126.9244)"
       id="g938">
      <path
         inkscape:connector-curvature="0"
         id="path940"
         style="fill:#060a23;fill-opacity:1;fill-rule:nonzero;stroke:none"
         d="m 0,0 c 0,0 -4.237,-21.189 10.472,-33.654 0,0 16.951,-8.726 46.868,14.459 0,0 -0.664,27.007 -14.792,32.326 C 28.421,18.449 0,0 0,0" />
    </g>
    <g
       transform="matrix(0.35277777,0,0,-0.35277777,33.033515,298.16012)"
       id="g942">
      <g
         id="g944" />
      <g
         id="g964">
        <g
           style="opacity:0.80000299"
           id="g962"
           clip-path="url(#clipPath948)">
          <g
             id="g952"
             transform="translate(424.4121,482.4668)">
            <path
               inkscape:connector-curvature="0"
               id="path950"
               style="fill:#fafcff;fill-opacity:1;fill-rule:nonzero;stroke:none"
               d="m 0,0 c -1.055,-5.346 0.109,-9.803 2.478,-14.615 0.85,-1.731 3.43,-0.214 2.582,1.51 C 3.066,-9.052 1.993,-5.316 2.884,-0.795 3.256,1.089 0.373,1.893 0,0" />
          </g>
          <g
             id="g956"
             transform="translate(457.7646,466.7793)">
            <path
               inkscape:connector-curvature="0"
               id="path954"
               style="fill:#fafcff;fill-opacity:1;fill-rule:nonzero;stroke:none"
               d="M 0,0 C 1.929,0 1.929,2.992 0,2.992 -1.93,2.992 -1.93,0 0,0" />
          </g>
          <g
             id="g960"
             transform="translate(461.2554,471.9316)">
            <path
               inkscape:connector-curvature="0"
               id="path958"
               style="fill:#fafcff;fill-opacity:1;fill-rule:nonzero;stroke:none"
               d="M 0,0 C 5.787,0 5.787,8.975 0,8.975 -5.788,8.975 -5.788,0 0,0" />
          </g>
        </g>
      </g>
    </g>
    <g
       transform="matrix(0.35277777,0,0,-0.35277777,187.93601,139.90588)"
       id="g966">
      <path
         inkscape:connector-curvature="0"
         id="path968"
         style="fill:#89121b;fill-opacity:1;fill-rule:nonzero;stroke:none"
         d="m 0,0 c -4.663,0 -8.82,1.084 -11.982,3.761 l 0.387,0.497 C 4.134,-9.054 47.512,19.826 47.95,20.12 l 1.188,-0.228 C 47.676,18.907 19.375,0 0,0" />
    </g>
    <g
       transform="matrix(0.35277777,0,0,-0.35277777,33.033515,298.16012)"
       id="g970">
      <g
         id="g972" />
      <g
         id="g984">
        <g
           style="opacity:0.19999701"
           id="g982"
           clip-path="url(#clipPath976)">
          <g
             id="g980"
             transform="translate(503.8281,272.2588)">
            <path
               inkscape:connector-curvature="0"
               id="path978"
               style="fill:#000000;fill-opacity:1;fill-rule:nonzero;stroke:none"
               d="m 0,0 c 0,-12.098 -39.698,-21.904 -88.668,-21.904 -48.971,0 -88.669,9.806 -88.669,21.904 0,12.098 39.698,21.905 88.669,21.905 C -39.698,21.905 0,12.098 0,0" />
          </g>
        </g>
      </g>
    </g>
    <g
       transform="matrix(0.35277777,0,0,-0.35277777,46.584803,123.38113)"
       id="g1142">
      <path
         inkscape:connector-curvature="0"
         id="path1144"
         style="fill:#ffffff;fill-opacity:1;fill-rule:nonzero;stroke:none"
         d="M 0,0 C -8.249,0 -14.938,6.688 -14.938,14.938 -14.938,6.688 -21.628,0 -29.876,0 -21.628,0 -14.938,-6.688 -14.938,-14.939 -14.938,-6.688 -8.249,0 0,0" />
    </g>
  </g>
</svg>
